<svg aria-hidden="true" style="position:absolute;width:0;height:0" xmlns="http://www.w3.org/2000/svg" overflow="hidden"><defs>
<symbol id="icon-antenna" viewBox="0 0 32 32"><path fill="var(--color1, #212121)" d="m30.77 22.1-8.44-8.5.94-4.62c.24.1.5.14.75.14h.01a2.16 2.16 0 1 0-2-1.43l-4.97.6L8.97.16A.53.53 0 0 0 8.6 0a.53.53 0 0 0-.37.16l-1.51 1.5c-.2.2-.2.55 0 .75l.81.83a14.94 14.94 0 0 0 2.52 17.66c.05.04.1.08.15.1-.04.18-.05.36-.05.55v6.18h-6.4a2.67 2.67 0 0 0-2.67 2.67v1.07c0 .3.24.53.53.53h24.54c.29 0 .53-.24.53-.53V30.4c0-1.47-1.2-2.66-2.67-2.66h-6.4v-2.75a14.85 14.85 0 0 0 10.09-1.46l.82.82a.53.53 0 0 0 .75 0l1.51-1.5c.2-.2.2-.54 0-.75zM23.28 6.23a1.07 1.07 0 1 1 .75 1.82 1.07 1.07 0 0 1-.75-1.82zm-1.26 3.5-.6 2.95-1.17-1.18 1.78-1.76zm-.6-.9-1.92 1.92L18 9.25l3.4-.41zM24 28.8c.89 0 1.6.72 1.6 1.6v.53H2.14v-.53c0-.88.71-1.6 1.6-1.6H24zm-7.46-2.13v1.06H11.2v-1.06h5.34zM11.2 25.6v-4.05c0-1.3 1.2-2.35 2.67-2.35s2.67 1.05 2.67 2.35v4.05H11.2zm6.4-1.7v-2.35c0-1.89-1.67-3.42-3.73-3.42a3.8 3.8 0 0 0-3.28 1.79A13.87 13.87 0 0 1 8.31 4.03l18.6 18.71a13.82 13.82 0 0 1-9.3 1.16zm11.3-.68L7.83 2.04l.75-.75 7.94 7.98 13.12 13.2-.76.75z"/><path fill="var(--color2, #2196f3)" d="M13.88 20.27a1.6 1.6 0 1 0-.01 3.2 1.6 1.6 0 1 0 0-3.2zm.37 1.98c-.1.1-.24.15-.38.15a.53.53 0 0 1 0-1.07.53.53 0 0 1 .37.92z"/></symbol><symbol id="icon-astronaut" viewBox="0 0 32 32"><path fill="var(--color2, #2196f3)" d="M31.97 4.52a.53.53 0 0 0-.43-.36l-1.9-.28-.86-1.73c-.18-.36-.78-.36-.96 0l-.85 1.73-1.91.28a.54.54 0 0 0-.3.91l1.38 1.35-.32 1.9c-.04.2.05.4.21.52.17.12.38.14.56.04l1.71-.9 1.71.9a.54.54 0 0 0 .78-.56l-.33-1.9 1.38-1.35c.15-.14.2-.35.14-.55zm-2.46 1.33a.53.53 0 0 0-.15.47l.19 1.12-1-.53a.53.53 0 0 0-.5 0l-1 .53.2-1.12a.53.53 0 0 0-.16-.47l-.81-.79 1.12-.16a.53.53 0 0 0 .4-.3l.5-1 .5 1c.08.16.23.27.4.3l1.12.16-.8.8zM26.13 20.52h-1.06v1.07h1.06v-1.07zM26.13 22.66h-1.06v1.06h1.06v-1.06zM27.2 21.59h-1.07v1.07h1.07v-1.07zM25.07 21.59H24v1.07h1.07v-1.07zM22.4 26.39h-1.07v1.07h1.07v-1.07zM22.4 28.52h-1.07v1.07h1.07v-1.07zM23.47 27.46H22.4v1.06h1.07v-1.06zM21.33 27.46h-1.06v1.06h1.06v-1.06zM16 24.26h-1.07v1.06H16v-1.06zM16 26.39h-1.07v1.07H16v-1.07zM17.07 25.32H16v1.07h1.07v-1.07zM14.93 25.32h-1.06v1.07h1.06v-1.07zM5.87 6.12H4.8V7.2h1.07V6.12zM5.87 8.26H4.8v1.06h1.07V8.26zM6.93 7.19H5.87v1.07h1.06V7.19zM4.8 7.19H3.73v1.07H4.8V7.19z"/><path fill="var(--color1, #212121)" d="M24.71 14.16c-.28-.39-.7-.64-1.18-.7-.48-.07-.96.05-1.34.35l-1.26.96-1.9 1.41-1.35-.54A6.94 6.94 0 0 0 14.83 2.4a6.96 6.96 0 0 0-6.96 6.93c0 1.39.42 2.68 1.12 3.76l-2.76-.02H6.2l-.16.03-.03.02h-.02l-3.24 1.6-1.89.9a1.78 1.78 0 0 0 .93 3.3c.3.01.58-.06.84-.2l1.4-.74 2.26-1.17h1.35L2.2 22.2.86 23.55a1.65 1.65 0 0 0 0 2.35 1.67 1.67 0 0 0 2.36 0l1.31-1.3 1.74-1.3.9.89-1.76 1.75-1.34 1.34a1.65 1.65 0 0 0 0 2.36 1.67 1.67 0 0 0 2.36 0l3.48-3.47 1.01-1 .02-.02 5.17-5.66 3.47.5h.07c.07 0 .13-.02.2-.04l.04-.02.06-.03 3.21-2.13.03-.03.04-.03 1.27-1.19c.67-.62.76-1.63.22-2.36zM2.14 17.77a.71.71 0 0 1-.56.05.72.72 0 0 1-.21-1.26l1.31-.63.45 1.31-.99.53zm3.5-1.83-1.55.8-.44-1.28 2.03-1-.04 1.48zm15.1-6.62c0 .92-.22 1.79-.6 2.56l-4.18-1.9a1.86 1.86 0 0 0-.8-1.39l1.47-4.86a5.88 5.88 0 0 1 4.1 5.6zm-11.8 0a5.89 5.89 0 0 1 6.65-5.81l-1.44 4.75h-.05a1.87 1.87 0 1 0 0 3.73c.7 0 1.3-.38 1.62-.95l3.86 1.76A5.9 5.9 0 0 1 8.94 9.32zm5.96.8a.8.8 0 0 1-1.6 0 .8.8 0 0 1 1.6 0zM2.46 25.15a.6.6 0 0 1-.85 0 .6.6 0 0 1 0-.85l.96-.96.85.85-.96.96zm3.22 3.73a.6.6 0 0 1-.86 0 .6.6 0 0 1 0-.84l.97-.96.85.85-.96.95zm3.48-3.47-1.77 1.76-.85-.85 1.76-1.75c.05-.04.07-.09.1-.14l.02-.04c.02-.04.02-.08.03-.13l.01-.07-.02-.1c0-.04 0-.07-.02-.1a.55.55 0 0 0-.09-.14l-.02-.04-1.61-1.6-.06-.04a.5.5 0 0 0-.09-.05.51.51 0 0 0-.09-.04.5.5 0 0 0-.1-.02.5.5 0 0 0-.1 0l-.1.03a.48.48 0 0 0-.1.04l-.06.03-1.77 1.33-.9-.9 2.4-2.39 4.36 4.3-.93.91zm6.82-7.02h-.05a.56.56 0 0 0-.3.08.5.5 0 0 0-.08.06l-.04.03-4.7 5.15-4.33-4.26 2.84-2.82a.53.53 0 0 0-.38-.9H6.72l.03-1.6 3.1.02a6.95 6.95 0 0 0 6.26 1.98c.04.03.08.07.13.09l2.41.96.15.75.18.89-3-.43zm4.04.18-.31-1.56 1.44-1.08.95 1.26-2.08 1.38zm3.75-2.83-.83.79-.94-1.24.84-.64a.73.73 0 0 1 .54-.14.72.72 0 0 1 .4 1.23z"/><path fill="var(--color1, #212121)" d="m13.6 18.54-2.14-2.13a.53.53 0 0 0-.75 0l-2.15 2.13a.54.54 0 0 0 0 .76l2.15 2.13a.54.54 0 0 0 .75 0l2.14-2.13a.54.54 0 0 0 0-.76zm-2.52 1.76L9.7 18.92l1.38-1.38 1.39 1.38-1.39 1.38zM17.16 5.07l-.25 1.04c.07.01 1.73.45 1.73 2.15h1.07c0-2.02-1.66-2.97-2.55-3.19zM19.71 9.32h-1.07v1.07h1.07V9.32z"/>
</symbol>
<symbol id="icon-Client-1" viewBox="0 0 32 32"><path d="m13.18 12 1.32 1.24h-2.45v6.06h6.4v-2.32l1.31 1.25v-6.24h-6.58zm5.2 4.84-3.73-3.55h3.74v3.55zm-1.15 1.57h-4.17v-4.07h.3v3.8h3.87v.27zm-3.19 1.7-.15.31-.15-.31h-.13l.22.42v.24h.12v-.24l.22-.42h-.13zm.2.66.05-.15h.26l.06.15h.12l-.26-.66h-.1l-.25.66h.12zm.18-.52.1.28h-.2l.1-.28zm.61.26a.15.15 0 0 0-.02.08c0 .06.02.1.06.14s.1.05.16.05.12-.01.17-.05l.04.04h.13l-.1-.11a.33.33 0 0 0 .06-.2h-.1l-.03.12-.13-.15.05-.04.07-.07a.12.12 0 0 0 .02-.07c0-.05-.02-.08-.05-.11s-.07-.04-.12-.04c-.05 0-.1.01-.13.04s-.05.07-.05.13c0 .02 0 .04.02.06l.05.09a.4.4 0 0 0-.1.09zm.3.15a.17.17 0 0 1-.1.03c-.03 0-.06 0-.08-.02s-.03-.05-.03-.08.02-.07.06-.1l.16.17zm-.11-.3c-.04-.04-.05-.07-.05-.1 0-.02 0-.04.02-.05l.05-.02.05.01.02.05c0 .03 0 .05-.03.07h-.01l-.05.04zm1.08.36c.05-.04.08-.1.08-.16h-.11c0 .04-.02.08-.05.1s-.05.03-.1.03-.09-.02-.11-.06-.04-.09-.04-.16v-.06c0-.07.01-.13.04-.16s.06-.06.12-.06c.04 0 .07.01.1.03s.03.06.04.1h.11c0-.07-.03-.12-.08-.16s-.1-.06-.17-.06c-.06 0-.1.01-.15.04s-.07.06-.1.1-.03.11-.03.17v.07c0 .06.01.11.03.16s.06.08.1.1c.04.03.09.05.14.05.08 0 .14-.02.18-.06zm.69-.09a.4.4 0 0 0 .03-.17v-.04c0-.06 0-.12-.03-.17s-.06-.09-.1-.11c-.04-.03-.09-.04-.14-.04s-.1.01-.15.04c-.04.02-.07.06-.1.11s-.03.1-.03.17v.04c0 .07.01.12.03.17s.06.09.1.12c.04.02.1.04.15.04s.1-.02.14-.04a.26.26 0 0 0 .1-.12zm-.13-.38c.03.04.05.1.05.17v.04c0 .07-.02.13-.05.17s-.06.06-.11.06c-.06 0-.1-.02-.12-.06s-.05-.1-.05-.17v-.04c0-.07.02-.13.05-.17s.06-.06.11-.06c.06 0 .1.02.12.06z"/>
</symbol>
<symbol id="icon-Client-2" viewBox="0 0 32 32"><path d="M15.46 11.8h-.03l-.12-.01h-.33c-.68.04-1.36.22-1.98.51l-.08.04v4.17l.2-.07a7.41 7.41 0 0 1 2.05-.36v.55h-.22a6.1 6.1 0 0 0-2.57.73v-5.34a5.6 5.6 0 0 1 2.85-.78h.08a5.9 5.9 0 0 1 .96.13v.53a4.28 4.28 0 0 0-.66-.1h-.15zm.95.54.36.02a5.93 5.93 0 0 0 2.85-.73v5.24a5.6 5.6 0 0 1-3.9.66v-5.29a3.78 3.78 0 0 0 .68.1zm2.67.04-.2.07a6.45 6.45 0 0 1-2.46.35l-.15-.01v4.29h.13c.13.02.25.02.38.02a5.09 5.09 0 0 0 2.21-.5l.09-.05v-4.17zM12.75 19.19c-.03-.03-.06-.06-.1-.07l-.11-.02a.3.3 0 0 0-.22.09.26.26 0 0 0-.06.1.32.32 0 0 0-.02.11v.71c0 .05 0 .1.03.15a.3.3 0 0 0 .07.1l.1.05.1.01c.04 0 .08 0 .12-.02a.3.3 0 0 0 .18-.28v-.08h-.19v.07l-.01.06a.1.1 0 0 1-.03.04.15.15 0 0 1-.04.02h-.08l-.04-.03a.17.17 0 0 1-.03-.1v-.66c0-.04 0-.08.03-.1 0-.02.02-.04.04-.04l.05-.01h.04l.04.04c.02.03.03.06.03.1v.06h.19v-.08a.33.33 0 0 0-.09-.22zM13.86 19.18a.33.33 0 0 0-.32-.06.28.28 0 0 0-.17.16.33.33 0 0 0-.03.14v.68c0 .05 0 .1.03.14.01.04.04.07.07.1l.1.06c.04.02.07.02.1.02a.32.32 0 0 0 .22-.08.27.27 0 0 0 .07-.1c.02-.04.03-.1.03-.14v-.68a.32.32 0 0 0-.1-.24zm-.09.92v.05l-.03.05a.14.14 0 0 1-.18 0l-.03-.04v-.8c0-.02.02-.03.03-.04a.14.14 0 0 1 .18 0l.03.04v.74zM15.32 20.4v-1.29h-.18l-.24.69-.24-.69h-.18v1.3h.19v-.8l.18.57h.1l.18-.56v.79h.18zM16.37 19.2a.27.27 0 0 0-.1-.07.4.4 0 0 0-.14-.02h-.28v1.3h.19v-.5h.1c.05 0 .11-.02.16-.04a.27.27 0 0 0 .1-.1.31.31 0 0 0 .05-.12.9.9 0 0 0-.01-.33.27.27 0 0 0-.07-.12zm-.1.4-.01.06a.1.1 0 0 1-.05.05.18.18 0 0 1-.09.02h-.08v-.45h.1c.02 0 .05 0 .08.02a.1.1 0 0 1 .04.05l.01.07V19.59zM17.24 19.11h-.15l-.28 1.3h.18l.06-.28h.25l.05.28h.19l-.3-1.3zm-.17.84.1-.47.09.47h-.19zM18.44 19.9l-.28-.79h-.18v1.3h.18v-.78l.29.78h.17v-1.3h-.18v.78zM19.57 19.11l-.15.52-.16-.52h-.2l.26.75v.55h.19v-.55l.25-.75h-.2zM12.23 20.77h.1v.25h.05v-.25h.1v-.05h-.24v.05zM12.98 20.72l-.11.3h.06l.03-.06h.12l.02.06h.07l-.12-.3h-.07zm0 .18.03-.1.05.1h-.09zM13.72 20.91h.07v.04a.11.11 0 0 1-.07.03l-.03-.01-.03-.02a.12.12 0 0 1-.02-.08c0-.07.03-.1.08-.1h.05c.02 0 .02.03.02.05l.06-.02c-.01-.05-.05-.08-.12-.08a.15.15 0 0 0-.11.04c-.01.01-.03.03-.03.05l-.01.06c0 .04 0 .08.04.11l.05.04h.06c.05 0 .1 0 .13-.04v-.12h-.13v.05zM14.48 20.72h-.06v.3h.21v-.05h-.15v-.25zM15.12 20.72h-.06v.3h.06v-.3zM15.74 20.92l-.12-.2h-.06v.3h.06v-.2l.12.2h.06v-.3h-.06v.2zM16.3 20.89h.16v-.05h-.15v-.07h.16v-.05h-.22v.3h.23v-.05h-.17v-.08zM17.68 20.84h-.12v-.12h-.06v.3h.06v-.13h.12v.13h.06v-.3h-.06v.12zM18.25 20.89h.15v-.05h-.15v-.07h.16v-.05h-.22v.3h.22v-.05h-.16v-.08zM19.02 20.89c.05 0 .07-.04.07-.08v-.04l-.03-.03a.17.17 0 0 0-.08-.02h-.13v.3h.06v-.12h.05l.02.03.07.1h.07l-.04-.07a.2.2 0 0 0-.07-.07zm-.07-.04h-.04v-.08h.05l.06.01v.01l.01.02v.02l-.01.01c-.02 0-.05.01-.07 0zM19.6 20.89h.15v-.05h-.15v-.07h.16v-.05h-.22v.3h.23v-.05h-.17v-.08z"/></symbol>
<symbol id="icon-Client-3" viewBox="0 0 32 32"><path d="M12.88 19.6h.01l.04.04a.35.35 0 0 1-.11.08.46.46 0 0 1-.17.02c-.05 0-.1 0-.15-.02a.32.32 0 0 1-.2-.18.36.36 0 0 1-.02-.14c0-.05.01-.1.03-.14.02-.04.05-.08.08-.1l.12-.08c.06-.02.1-.03.16-.03l.15.03c.04.01.08.03.11.06l-.03.04-.01.01h-.03l-.02-.01-.03-.02a.49.49 0 0 0-.03 0l-.05-.02h-.06l-.11.01a.24.24 0 0 0-.15.14.28.28 0 0 0-.02.11c0 .04 0 .08.02.11a.25.25 0 0 0 .14.14.3.3 0 0 0 .1.02h.07a.26.26 0 0 0 .14-.06l.02-.01zM14.06 19.4a.34.34 0 0 1-.1.25.36.36 0 0 1-.12.07.5.5 0 0 1-.32 0l-.12-.07a.24.24 0 0 1-.08-.11.36.36 0 0 1 0-.28.32.32 0 0 1 .2-.18c.1-.03.22-.03.32 0l.12.07c.04.03.06.07.07.1l.03.15zm-.1 0c0-.04-.01-.08-.03-.11a.22.22 0 0 0-.05-.09.25.25 0 0 0-.09-.05.37.37 0 0 0-.22 0 .25.25 0 0 0-.1.05.22.22 0 0 0-.05.09.33.33 0 0 0 0 .22.23.23 0 0 0 .15.13c.07.03.15.03.22 0a.25.25 0 0 0 .09-.05.24.24 0 0 0 .05-.08.3.3 0 0 0 .02-.11zM14.87 19.52l.01.02.01-.03.02-.02.26-.41.01-.02h.1v.68h-.09v-.54l-.26.42-.02.01h-.06l-.01-.01-.27-.43v.55h-.1v-.68h.11l.01.02.27.41.01.03zM15.86 19.48v.25h-.1v-.67h.22c.05 0 .09 0 .13.02.03 0 .07.02.1.04l.04.06a.2.2 0 0 1 .02.09.2.2 0 0 1-.02.09.18.18 0 0 1-.05.06.28.28 0 0 1-.1.05.47.47 0 0 1-.12.01h-.12zm0-.07h.12a.3.3 0 0 0 .08-.01l.06-.03a.13.13 0 0 0 .05-.1.12.12 0 0 0-.05-.1.21.21 0 0 0-.14-.04h-.12v.28zM17.24 19.73h-.11l-.01-.02-.07-.16h-.35l-.07.16-.02.02h-.1l.3-.67h.11l.32.68zm-.51-.25h.29l-.12-.27a.53.53 0 0 1-.03-.06v.03l-.02.03-.12.28zM17.68 19.06l.02.02.45.5v-.52h.09v.68h-.07l-.02-.02-.45-.5v.51h-.1v-.67h.08zM19 19.47v.26h-.1v-.26l-.3-.4H18.73l.01.01.18.26a.35.35 0 0 1 .03.06l.02-.02a.3.3 0 0 1 .01-.04l.18-.26.01-.01.02-.01h.1l-.29.4zM14.82 17.93l.14.01c.69-.27 1.27-.7 1.68-1.26s.61-1.2.6-1.87l-.76-.66c.15.7.08 1.43-.22 2.1s-.79 1.25-1.44 1.68z"/><path d="M14.55 17.9h.02c.7-.43 1.23-1.03 1.53-1.73s.34-1.46.14-2.19l-1.1-.94a4.04 4.04 0 0 1-.6 4.86zM18.23 15.6a3.4 3.4 0 0 1-1.27 1.85c-.2.15-.4.27-.61.38.52-.13 1-.37 1.41-.7s.72-.71.92-1.16l-.45-.38z"/><path d="m18.06 15.48-.63-.54c0 .62-.21 1.23-.59 1.76s-.9.96-1.53 1.26l.42-.03c.6-.2 1.11-.54 1.52-.97s.69-.93.81-1.48zM14.64 12.64l-.75-.65c-.67.23-1.25.62-1.65 1.13s-.63 1.13-.63 1.75c0 .69.27 1.36.76 1.9s1.17.93 1.94 1.1a3.99 3.99 0 0 0 .33-5.22zM19.8 15.38c-.01-.81-.39-1.6-1.05-2.18s-1.57-.9-2.51-.9c-.43 0-.87.07-1.27.2l4.58 3.99c.16-.35.24-.73.24-1.1z"/>
</symbol>
<symbol id="icon-Client-4" viewBox="0 0 32 32"><path d="M10.57 14.32c-.45 0-.82.33-.82.73 0 .4.37.73.82.73.45 0 .82-.33.82-.73 0-.4-.37-.73-.82-.73zM16.6 14.1c0-.56-.25-1.1-.7-1.5s-1.04-.6-1.66-.6c-.63 0-1.23.21-1.68.6s-.69.94-.7 1.5v3.07s4.74-.47 4.74-3.08zM8.1 18.17c0 .4.17.76.48 1.04s.72.43 1.16.43c.44 0 .85-.16 1.16-.43s.48-.65.49-1.04v-2.13s-3.3.32-3.3 2.13zm1.64.39c-.09 0-.17-.03-.24-.07s-.13-.1-.16-.17-.04-.15-.02-.22.05-.14.11-.2c.06-.05.14-.09.23-.1s.17 0 .24.02c.08.03.15.08.2.14s.07.14.07.21a.36.36 0 0 1-.12.28l-.14.08a.42.42 0 0 1-.17.03zM13.07 18.35h-.32v.32h-.17v-.8h.53V18h-.36v.21h.32v.13zm.8-.06c0 .08-.02.15-.05.2s-.07.11-.12.15c-.05.03-.11.05-.18.05s-.12-.02-.18-.05-.09-.08-.12-.14a.48.48 0 0 1-.04-.2v-.04c0-.08.01-.15.04-.21s.07-.1.12-.14c.05-.03.11-.05.18-.05a.32.32 0 0 1 .3.19c.03.06.04.13.04.2v.04zm-.18-.04c0-.08-.01-.14-.04-.19s-.07-.06-.13-.06-.1.02-.13.06-.04.1-.04.2v.03c0 .08.01.15.04.2s.07.06.13.06.1-.02.13-.06.04-.11.04-.2v-.03zm.7.21c0-.03 0-.05-.02-.07s-.07-.03-.12-.05a.88.88 0 0 1-.14-.06c-.09-.05-.14-.11-.14-.2 0-.04.02-.08.04-.11s.06-.06.1-.08a.4.4 0 0 1 .31 0c.05.02.08.05.1.09s.04.08.04.13h-.16c0-.04-.01-.07-.04-.09s-.05-.03-.1-.03c-.03 0-.07.01-.09.03s-.03.04-.03.07c0 .02.01.04.04.06l.11.05c.1.03.17.06.2.1s.07.1.07.16c0 .07-.02.13-.08.17s-.12.06-.2.06c-.07 0-.13-.01-.18-.04s-.09-.05-.11-.1a.24.24 0 0 1-.04-.13h.16c0 .1.06.14.16.14.04 0 .07-.01.1-.03s.03-.04.03-.07zm.9-.46h-.25v.67h-.17V18h-.24v-.13h.65V18zm.57.33h-.32v.21h.38v.13h-.54v-.8h.53V18h-.37v.2h.32v.13zm.45.05h-.13v.3H16v-.8h.3c.1 0 .17.01.22.05s.08.1.08.18c0 .06-.02.1-.04.14s-.06.06-.1.09l.17.32v.01h-.18l-.15-.3zm-.13-.13h.13c.04 0 .07-.02.1-.04s.03-.05.03-.08c0-.04-.01-.07-.03-.1s-.06-.03-.1-.03h-.14v.25zm1 .14v.28h-.17v-.8h.32c.06 0 .11.01.16.03s.08.06.1.1c.03.04.04.09.04.14 0 .08-.03.14-.08.18s-.13.07-.22.07h-.15zm0-.13h.15c.04 0 .08-.01.1-.03s.03-.05.03-.1c0-.03 0-.06-.03-.09s-.06-.03-.1-.03h-.15v.25zm1.05.07h-.32v.21h.37v.13h-.54v-.8h.54V18h-.37v.2h.32v.13zm.76-.32h-.24v.66h-.17V18h-.24v-.13h.65V18zm.58.32h-.32v.21h.38v.13h-.54v-.8h.54V18h-.38v.2h.32v.13zm.45.05h-.13v.3h-.17v-.8h.3c.1 0 .17.01.22.05s.08.1.08.18c0 .06-.01.1-.04.14s-.06.06-.1.09l.17.32v.01h-.18l-.15-.3zm-.13-.13h.13c.04 0 .08-.02.1-.04s.03-.05.03-.08c0-.04 0-.07-.03-.1s-.05-.03-.1-.03h-.13v.25zm.97.21c0-.03 0-.05-.03-.07l-.12-.05a.88.88 0 0 1-.14-.06c-.09-.05-.13-.11-.13-.2 0-.04 0-.08.03-.11s.06-.06.1-.08a.4.4 0 0 1 .31 0 .24.24 0 0 1 .15.22h-.17c0-.04-.01-.07-.03-.09s-.06-.03-.1-.03c-.04 0-.07.01-.1.03s-.03.04-.03.07c0 .02.01.04.04.06l.12.05c.09.03.16.06.2.1s.07.1.07.16c0 .07-.03.13-.08.17s-.12.06-.21.06c-.07 0-.12-.01-.17-.04s-.1-.05-.12-.1a.24.24 0 0 1-.04-.13h.17c0 .1.05.14.16.14.04 0 .07-.01.09-.03s.03-.04.03-.07z"/>
</symbol>
<symbol id="icon-Client-5" viewBox="0 0 32 32"><path d="M11.06 18.77c.05.06.07.12.07.19 0 .04 0 .09-.03.13l-.08.1a.5.5 0 0 1-.3.09h-.56V18.1h.54c.1 0 .21.02.3.08a.26.26 0 0 1 .1.22c0 .06-.02.12-.06.17a.3.3 0 0 1-.16.1c.07 0 .13.04.18.1zm-.64-.17h.23c.05 0 .1-.01.14-.04a.13.13 0 0 0 .05-.12v-.06c0-.02-.03-.03-.04-.05a.24.24 0 0 0-.16-.04h-.22v.3zm.4.45.04-.06a.13.13 0 0 0 .01-.06l-.01-.07a.16.16 0 0 0-.04-.05.26.26 0 0 0-.16-.04h-.24v.32h.24c.06 0 .11-.01.16-.04zM12.15 19.27l-.3-.45h-.1v.46h-.26V18.1h.48c.13 0 .25.03.34.1.07.06.11.15.12.23s-.02.18-.08.25a.4.4 0 0 1-.23.12l.31.46h-.28zm-.4-.61h.2c.15 0 .22-.06.22-.18v-.07c0-.03-.03-.04-.05-.06a.24.24 0 0 0-.17-.05h-.2v.36zM13.55 19.04h-.5l-.1.23h-.26l.46-1.15h.3l.46 1.15h-.27l-.09-.23zm-.06-.18-.2-.49-.18.5h.38zM15.3 19.27h-.25l-.57-.79v.8h-.25V18.1h.25l.57.8v-.8h.26v1.17zM16.76 19a.54.54 0 0 1-.23.2.81.81 0 0 1-.36.07h-.45v-1.16h.45c.12 0 .25.02.36.07.1.05.18.12.23.2.05.1.08.2.08.31s-.03.21-.08.3zm-.3-.03c.08-.08.12-.18.12-.28s-.04-.2-.11-.28a.47.47 0 0 0-.32-.1h-.18v.76h.18c.12 0 .23-.03.32-.1zM13.71 11.63s3.29 1.13 3.22 2.77v2.78s-3.28-1.13-3.22-2.78v-2.77zM19.85 16.53c.62-.4 1.34-.63 2.09-.7v-.87c-.87.3-1.6.85-2.09 1.57z"/><path d="M19.48 16.8a4.35 4.35 0 0 1 2.46-2.02v-2.51s-4.68 1.62-4.58 3.96v3.95l.54-.2.01-.4a4 4 0 0 1 1.57-2.79z"/><path d="M19.03 18.26c.03-.27.08-.55.17-.8a3.66 3.66 0 0 0-1 2.38c.27-.12.58-.26.9-.43-.08-.38-.1-.77-.07-1.15zM19.22 18.28c-.03.34-.01.7.06 1.03 1.27-.7 2.71-1.78 2.65-3.08v-.12c-.9.1-1.76.46-2.43 1.04-.15.36-.25.74-.28 1.13z"/>
</symbol>
<symbol id="icon-Client-6" viewBox="0 0 32 32"><path d="M16.08 15.51a.56.56 0 0 1-.11-.37v-.55c0-.16.03-.29.1-.37s.21-.13.4-.13c.17 0 .3.03.37.1.07.1.11.22.1.33v.13h-.3v-.13l-.01-.12a.12.12 0 0 0-.05-.08.18.18 0 0 0-.1-.03c-.05 0-.1 0-.13.03a.14.14 0 0 0-.05.09.6.6 0 0 0-.01.13v.66c0 .06 0 .13.04.18l.06.05h.08c.04.01.08 0 .11-.02a.14.14 0 0 0 .05-.08v-.27h.32v.12a.5.5 0 0 1-.11.35c-.07.08-.2.12-.37.12s-.31-.05-.39-.14zM17.37 15.52c-.08-.09-.12-.21-.12-.37v-.57c0-.16.04-.29.12-.37s.2-.12.39-.12c.18 0 .3.04.39.12s.11.2.11.37v.57c0 .16-.04.28-.12.37s-.2.13-.38.13-.32-.05-.4-.13zm.53-.14a.31.31 0 0 0 .04-.17v-.7c0-.05-.01-.11-.04-.16l-.06-.05a.16.16 0 0 0-.08 0h-.08c-.02 0-.05.03-.07.05a.3.3 0 0 0-.04.16v.7c0 .06.01.12.04.17l.07.05.08.01a.21.21 0 0 0 .14-.06zM18.64 14.1h.33l.25 1.06.25-1.06h.33l.03 1.52h-.24l-.02-1.05-.25 1.05h-.2l-.25-1.06-.02 1.06h-.24l.03-1.52zM20.2 14.1h.52c.3 0 .45.15.45.44 0 .27-.16.4-.47.4h-.18v.68h-.32V14.1zm.45.65h.09c.03 0 .06-.03.08-.04a.24.24 0 0 0 .05-.18c0-.04 0-.09-.02-.13 0-.02 0-.03-.02-.05l-.04-.03a.33.33 0 0 0-.14-.02h-.13v.45h.13zM21.63 14.1h.34l.36 1.52h-.3l-.07-.35h-.3l-.08.35h-.3l.35-1.52zm.3 1-.13-.64-.12.64h.24zM22.61 14.1h.22l.43.87v-.87h.27v1.52h-.22l-.43-.9v.9h-.27V14.1zM24.15 15.04l-.36-.93h.3l.22.6.2-.6h.3l-.35.93v.58h-.31v-.58zM16.57 16.29v.08h-.26v.61h-.1v-.61h-.27v-.08h.63zM17.4 16.99h-.1l-.02-.01c-.02-.01 0-.01-.01-.02l-.07-.16h-.37l-.07.16-.01.02h-.11l.32-.69h.1l.33.7zm-.54-.26h.3l-.12-.29a.64.64 0 0 1-.03-.06l-.01.03-.01.03-.13.29zM17.94 16.92a.6.6 0 0 0 .06 0l.05-.01.05-.01.04-.02v-.16H18v-.07h.24v.27a.48.48 0 0 1-.22.07h-.09c-.05 0-.1 0-.16-.02-.05-.02-.1-.04-.13-.08s-.06-.07-.08-.1a.34.34 0 0 1-.03-.15l.03-.15c.02-.04.05-.08.08-.1l.13-.08a.52.52 0 0 1 .17-.03.67.67 0 0 1 .17.03l.06.03.06.03-.04.05h-.04a.2.2 0 0 1-.03-.01l-.04-.02a.3.3 0 0 0-.06-.02h-.08a.4.4 0 0 0-.13.02c-.03 0-.06.03-.1.05s-.04.06-.05.09a.32.32 0 0 0 0 .23l.06.09.1.05.12.02zM18.96 16.9h.35V17h-.45v-.7h.1v.62zM19.68 16.99h-.11v-.7h.1v.7zM20.08 16.3h.02l.46.53v-.55h.1v.7h-.08l-.02-.01-.46-.53V17H20v-.7h.08zM21.47 16.29v.08h-.4v.23h.32v.07h-.31v.24h.39v.07h-.5v-.7h.5zM10 11.98l4.86 1.2v4.16l-4.85-1.19v-4.17zm-.3-.35v4.73l5.47 1.34v-4.73L9.7 11.63z"/><path d="m12.63 19.9-5.48-1.35v-4.73l5.48 1.35v4.73z"/><path d="m9.79 11.93 4.79 1.17-2.04 1.76-4.8-1.17 2.05-1.76zm-.1-.3-2.54 2.2 5.48 1.34 2.54-2.2-5.48-1.34zM12.94 19.63l2.23-1.93-2.23-.55v2.48z"/>
</symbol>
<symbol id="icon-clock" viewBox="0 0 32 32"><path fill="var(--color1, #212121)" d="M31.3 15.3a15.3 15.3 0 1 0-19.96 14.58l.18.03c.12 0 .24-.03.35-.1.13-.07.23-.2.28-.35L16 17.21a1.91 1.91 0 1 0-.84-3.63l-5.1-5.1a.64.64 0 0 0-.9.9l5.1 5.1c-.4.8-.17 1.77.53 2.31l-3.68 11.67a14.04 14.04 0 1 1 10.57-.35l-.4-1.87a.64.64 0 0 0-1.04-.34l-3.84 3.42a.64.64 0 0 0 .23 1.09l4.9 1.56a.64.64 0 0 0 .82-.74l-.4-1.84A15.26 15.26 0 0 0 31.3 15.3zM16 14.66a.64.64 0 1 1 0 1.28.64.64 0 0 1 0-1.28zm2.1 14.87 2.18-1.95.6 2.84-2.79-.9z"/><path fill="var(--color2, #2196f3)" d="M15.35 3.19v1.27a.64.64 0 1 0 1.28 0V3.19a.64.64 0 0 0-1.28 0zM3.88 14.66a.64.64 0 0 0 0 1.28h1.27a.64.64 0 1 0 0-1.28H3.88zM28.1 15.94a.64.64 0 1 0 0-1.28h-1.27a.64.64 0 0 0 0 1.28h1.28z"/>
</symbol>
<symbol id="icon-diagram" viewBox="0 0 32 32"><path fill="var(--color2, #2196f3)" d="M14.93 14.96h1.06v4.8h-1.06v-4.8zM19.19 17.1h1.07v2.66h-1.07V17.1zM10.66 18.7h1.07v1.06h-1.07V18.7zM7.46 18.16h1.07v1.6H7.46v-1.6z"/><path fill="var(--color1, #212121)" d="M1.6 28.3h25.59c.88 0 1.6-.73 1.6-1.6v-2.14c0-.88-.72-1.6-1.6-1.6h-.54V9.66l3.03-2.86a1.6 1.6 0 1 0-.75-.76L26.65 8.2V6.97c0-.88-.71-1.6-1.6-1.6H3.73c-.88 0-1.6.72-1.6 1.6v16H1.6c-.88 0-1.6.7-1.6 1.6v2.12c0 .89.72 1.6 1.6 1.6zM30.38 4.83a.53.53 0 1 1 0 1.06.53.53 0 0 1 0-1.06zM3.2 6.97c0-.3.24-.53.53-.53h21.32c.3 0 .54.23.54.53V9.2l-1.07 1.01V8.03c0-.29-.24-.53-.53-.53H4.79c-.29 0-.53.24-.53.53v13.33c0 .3.24.53.54.53h19.19c.3 0 .53-.23.53-.53V11.7l1.07-1.01v12.28H3.19v-16zM8 13.9a1.6 1.6 0 1 0 1.1 2.75l1.86.93c.21.1.47.06.63-.12l3.94-4.44 3.87 2.9c.21.16.5.14.69-.03l3.36-3.2v8.14H5.33V8.57h18.12v2.66l-3.77 3.57-3.9-2.93a.53.53 0 0 0-.72.08l-4 4.49-1.49-.75c.02-.06.02-.13.02-.19 0-.88-.71-1.6-1.6-1.6zm.53 1.6a.53.53 0 1 1-1.07 0 .53.53 0 0 1 1.07 0zm3.2 8.53h5.33v.53c0 .3-.24.53-.53.53h-4.27a.53.53 0 0 1-.53-.53v-.53zm-10.66.53c0-.3.24-.53.53-.53h9.06v.53c0 .88.72 1.6 1.6 1.6h4.26c.89 0 1.6-.72 1.6-1.6v-.53h9.06c.3 0 .54.24.54.53v2.13c0 .3-.24.53-.53.53H1.59a.53.53 0 0 1-.52-.53v-2.13z"/>
</symbol>
<symbol id="icon-envelope" viewBox="0 0 32 32"><path d="M29 4H3a3 3 0 0 0-3 3v18a3 3 0 0 0 3 3h26a3 3 0 0 0 3-3V7a3 3 0 0 0-3-3zm0 2a1 1 0 0 1 .38.08L16 17.68 2.62 6.08A1 1 0 0 1 3 6h26zm0 20H3a1 1 0 0 1-1-1V8.19l13.35 11.57a1 1 0 0 0 1.3 0L30 8.19V25a1 1 0 0 1-1 1z"/>
</symbol>
<symbol id="icon-facebook" viewBox="0 0 32 32"><path d="M21.33 5.31h2.92V.23C23.75.15 22.01 0 19.99 0c-4.2 0-7.1 2.65-7.1 7.52V12H8.26v5.69h4.65V32h5.7V17.69h4.46l.7-5.69H18.6V8.08c0-1.64.45-2.77 2.74-2.77z"/>
</symbol>
<symbol id="icon-instagram" viewBox="0 0 32 32"><path d="M31.97 9.4a11.7 11.7 0 0 0-.74-3.87 7.8 7.8 0 0 0-1.86-2.84A7.87 7.87 0 0 0 26.54.84C25.52.45 24.36.17 22.66.1 20.95.02 20.4 0 16.06 0s-4.89.02-6.6.1C7.76.16 6.6.43 5.58.83a7.8 7.8 0 0 0-2.84 1.85A7.87 7.87 0 0 0 .9 5.52C.5 6.54.23 7.7.16 9.4c-.08 1.71-.1 2.26-.1 6.6s.02 4.9.09 6.6c.08 1.7.35 2.87.74 3.88a7.9 7.9 0 0 0 1.85 2.84c.8.81 1.77 1.44 2.84 1.84 1.02.4 2.18.67 3.88.75 1.7.07 2.25.09 6.6.09s4.88-.02 6.59-.1a11.7 11.7 0 0 0 3.88-.74 8.18 8.18 0 0 0 4.68-4.68c.4-1.02.67-2.18.75-3.88.07-1.7.09-2.25.09-6.6s0-4.89-.08-6.6zm-2.88 13.07a8.76 8.76 0 0 1-.55 2.97 5.31 5.31 0 0 1-3.04 3.04c-.56.22-1.41.48-2.97.55-1.69.07-2.2.1-6.46.1s-4.79-.02-6.47-.1a8.76 8.76 0 0 1-2.97-.55 4.93 4.93 0 0 1-1.84-1.2 4.97 4.97 0 0 1-1.19-1.83 8.81 8.81 0 0 1-.55-2.97c-.07-1.69-.1-2.2-.1-6.47s.03-4.78.1-6.46c.07-1.56.33-2.4.55-2.97.26-.7.66-1.32 1.2-1.84a4.97 4.97 0 0 1 1.84-1.19A8.81 8.81 0 0 1 9.6 3c1.69-.07 2.2-.1 6.46-.1 4.28 0 4.78.03 6.47.1 1.56.07 2.4.33 2.96.55.7.26 1.33.66 1.84 1.2.53.51.94 1.14 1.2 1.83.22.57.48 1.42.55 2.97.07 1.69.1 2.2.1 6.46s-.03 4.77-.1 6.46z"/><path d="M16.06 7.78a8.22 8.22 0 1 0 0 16.45 8.22 8.22 0 0 0 0-16.45zm0 13.55a5.33 5.33 0 1 1 0-10.66 5.33 5.33 0 0 1 0 10.67zM26.52 7.46a1.92 1.92 0 1 1-3.83 0 1.92 1.92 0 0 1 3.83 0z"/>
</symbol>
<symbol id="icon-linkedin" viewBox="0 0 32 32"><path d="M32 32V20.26c0-5.74-1.24-10.16-7.95-10.16-3.23 0-5.39 1.77-6.27 3.45h-.1v-2.92h-6.36V32h6.63V21.42c0-2.79.52-5.48 3.97-5.48 3.4 0 3.45 3.18 3.45 5.66V32H32zM.53 10.64h6.63V32H.53V10.64zM3.84 0C1.72 0 0 1.72 0 3.84s1.72 3.88 3.84 3.88A3.88 3.88 0 0 0 7.7 3.84 3.85 3.85 0 0 0 3.84 0z"/>
</symbol>
<symbol id="icon-smartphone" viewBox="0 0 32 32"><path d="M23 0H9a3 3 0 0 0-3 3v26a3 3 0 0 0 3 3h14a3 3 0 0 0 3-3V3a3 3 0 0 0-3-3zM9 2h14a1 1 0 0 1 1 1v21H8V3a1 1 0 0 1 1-1zm14 28H9a1 1 0 0 1-1-1v-3h16v3a1 1 0 0 1-1 1z"/><path d="M10.7 27.48c.4.36.4.95 0 1.32s-1.02.36-1.4 0c-.4-.37-.4-.96 0-1.32s1.02-.37 1.4 0z"/>
</symbol>
<symbol id="icon-twitter" viewBox="0 0 32 32"><path d="M32 6.08c-1.19.52-2.46.87-3.78 1.03a6.52 6.52 0 0 0 2.89-3.62 13.11 13.11 0 0 1-4.16 1.59 6.57 6.57 0 0 0-11.2 5.98A18.57 18.57 0 0 1 2.23 4.2a6.57 6.57 0 0 0 2.02 8.77 6.48 6.48 0 0 1-2.97-.81v.07a6.59 6.59 0 0 0 5.26 6.44 6.55 6.55 0 0 1-2.97.1 6.62 6.62 0 0 0 6.13 4.58 13.18 13.18 0 0 1-9.7 2.7A18.47 18.47 0 0 0 10.06 29c12.08 0 18.68-10 18.68-18.67 0-.29-.01-.57-.03-.85 1.3-.92 2.4-2.07 3.29-3.4z"/>
</symbol>
</defs></svg>